<svg width="150" height="50" viewBox="0 0 150 50" fill="none" xmlns="http://www.w3.org/2000/svg">
<path d="M56.77 18H60.01V33H56.77V30.84C55.55 32.54 53.8 33.39 51.52 33.39C49.46 33.39 47.7 32.63 46.24 31.11C44.78 29.57 44.05 27.7 44.05 25.5C44.05 23.28 44.78 21.41 46.24 19.89C47.7 18.37 49.46 17.61 51.52 17.61C53.8 17.61 55.55 18.45 56.77 20.13V18ZM48.64 28.95C49.54 29.85 50.67 30.3 52.03 30.3C53.39 30.3 54.52 29.85 55.42 28.95C56.32 28.03 56.77 26.88 56.77 25.5C56.77 24.12 56.32 22.98 55.42 22.08C54.52 21.16 53.39 20.7 52.03 20.7C50.67 20.7 49.54 21.16 48.64 22.08C47.74 22.98 47.29 24.12 47.29 25.5C47.29 26.88 47.74 28.03 48.64 28.95ZM63.7865 33V11.1H67.0265V33H63.7865ZM70.7884 33V11.1H74.0284V33H70.7884ZM84.8704 33.39C82.6104 33.39 80.7204 32.63 79.2004 31.11C77.7004 29.59 76.9504 27.72 76.9504 25.5C76.9504 23.26 77.7004 21.39 79.2004 19.89C80.7204 18.37 82.6104 17.61 84.8704 17.61C86.3304 17.61 87.6604 17.96 88.8604 18.66C90.0604 19.36 90.9604 20.3 91.5604 21.48L88.7704 23.1C88.4304 22.38 87.9104 21.82 87.2104 21.42C86.5304 21 85.7404 20.79 84.8404 20.79C83.5204 20.79 82.4104 21.24 81.5104 22.14C80.6304 23.04 80.1904 24.16 80.1904 25.5C80.1904 26.84 80.6304 27.96 81.5104 28.86C82.4104 29.76 83.5204 30.21 84.8404 30.21C85.7204 30.21 86.5104 30 87.2104 29.58C87.9304 29.16 88.4704 28.6 88.8304 27.9L91.6204 29.49C90.9804 30.69 90.0604 31.64 88.8604 32.34C87.6604 33.04 86.3304 33.39 84.8704 33.39ZM100.808 33.39C98.6079 33.39 96.7379 32.63 95.1979 31.11C93.6579 29.59 92.8879 27.72 92.8879 25.5C92.8879 23.28 93.6579 21.41 95.1979 19.89C96.7379 18.37 98.6079 17.61 100.808 17.61C103.028 17.61 104.898 18.37 106.418 19.89C107.958 21.41 108.728 23.28 108.728 25.5C108.728 27.72 107.958 29.59 106.418 31.11C104.898 32.63 103.028 33.39 100.808 33.39ZM97.4779 28.89C98.3779 29.79 99.4879 30.24 100.808 30.24C102.128 30.24 103.238 29.79 104.138 28.89C105.038 27.99 105.488 26.86 105.488 25.5C105.488 24.14 105.038 23.01 104.138 22.11C103.238 21.21 102.128 20.76 100.808 20.76C99.4879 20.76 98.3779 21.21 97.4779 22.11C96.5779 23.01 96.1279 24.14 96.1279 25.5C96.1279 26.86 96.5779 27.99 97.4779 28.89ZM114.898 20.52C115.718 18.66 117.258 17.73 119.518 17.73V21.24C118.278 21.16 117.198 21.46 116.278 22.14C115.358 22.8 114.898 23.9 114.898 25.44V33H111.658V18H114.898V20.52ZM130.401 17.61C132.461 17.61 134.221 18.38 135.681 19.92C137.141 21.44 137.871 23.3 137.871 25.5C137.871 27.72 137.141 29.59 135.681 31.11C134.221 32.63 132.461 33.39 130.401 33.39C128.121 33.39 126.371 32.55 125.151 30.87V39H121.911V18H125.151V20.16C126.371 18.46 128.121 17.61 130.401 17.61ZM126.501 28.95C127.401 29.85 128.531 30.3 129.891 30.3C131.251 30.3 132.381 29.85 133.281 28.95C134.181 28.03 134.631 26.88 134.631 25.5C134.631 24.12 134.181 22.98 133.281 22.08C132.381 21.16 131.251 20.7 129.891 20.7C128.531 20.7 127.401 21.16 126.501 22.08C125.601 22.98 125.151 24.12 125.151 25.5C125.151 26.88 125.601 28.03 126.501 28.95Z" fill="#333333"/>
<circle cx="14.5" cy="25.5" r="12.5" stroke="#3562D6" stroke-width="4"/>
</svg>
