<svg width="8" height="14" viewBox="0 0 8 14" fill="none" xmlns="http://www.w3.org/2000/svg">
<g opacity="0.5">
<mask id="path-1-outside-1_3484_25" maskUnits="userSpaceOnUse" x="-0.000457764" y="6.10352e-05" width="8" height="14" fill="black">
<rect fill="white" x="-0.000457764" y="6.10352e-05" width="8" height="14"/>
<path d="M3.35439 6.93184C3.35439 6.95155 3.35472 6.97442 3.35536 7.00005L3.35482 7.02481C3.35452 7.04063 3.35438 7.05516 3.35439 7.06829C3.35439 7.40455 3.40277 8.35484 3.49955 8.7642C3.59633 9.17356 3.82212 9.23203 3.98343 9.26128C4.06181 9.27549 4.19353 9.24481 4.33785 9.21119C4.49041 9.17565 4.6573 9.1368 4.78988 9.14432C4.98381 9.1553 5.16864 9.51308 5.33067 9.82672C5.38422 9.93036 5.43536 10.0294 5.48342 10.1092C5.50981 10.1531 5.53859 10.1999 5.5686 10.2488L5.57001 10.251C5.7601 10.5602 5.99955 10.9498 5.99954 11.1765C5.99955 11.4396 5.51568 11.9806 5.28987 11.9806C5.22109 11.9806 5.16876 11.9846 5.11194 11.9891C4.98222 11.9991 4.82887 12.0111 4.40277 11.9806C3.78986 11.9367 3.27374 11.4835 3.08019 11.2496C2.88664 11.0157 1.99955 9.40748 1.99954 7.02442L1.99957 7.00006L1.99955 6.9757C1.99954 4.59265 2.88665 2.98447 3.08019 2.75055C3.27374 2.51663 3.78988 2.06342 4.40278 2.01956C4.82899 1.98906 4.9822 2.00097 5.11193 2.01106C5.16877 2.01549 5.2211 2.01956 5.28988 2.01956C5.51568 2.01956 5.99956 2.5605 5.99954 2.82364C5.99954 3.05037 5.76009 3.43988 5.57002 3.74908L5.56702 3.75395C5.53757 3.80188 5.50933 3.84783 5.48342 3.8909C5.43534 3.9708 5.3842 4.06982 5.33065 4.17349C5.16862 4.48705 4.98375 4.84482 4.78987 4.85581C4.65722 4.86332 4.49048 4.82448 4.33785 4.78894C4.19352 4.75532 4.06181 4.72465 3.98342 4.73885C3.82212 4.76808 3.59632 4.82657 3.49956 5.23593C3.40277 5.64528 3.35439 6.59558 3.35439 6.93184Z"/>
</mask>
<path d="M3.35536 7.00005L5.35489 7.04357L5.35591 6.9967L5.35473 6.94982L3.35536 7.00005ZM3.35439 6.93184L1.35439 6.93186V6.93216L3.35439 6.93184ZM3.35482 7.02481L1.35529 6.98129L1.35517 6.98731L3.35482 7.02481ZM3.35439 7.06829L5.35439 7.06827L5.35439 7.06683L3.35439 7.06829ZM3.49955 8.7642L1.5532 9.22434L1.5532 9.22436L3.49955 8.7642ZM3.98343 9.26128L3.62655 11.2292L3.62663 11.2292L3.98343 9.26128ZM4.33785 9.21119L3.88416 7.26332L3.88407 7.26335L4.33785 9.21119ZM4.78988 9.14432L4.67665 11.1411L4.67679 11.1411L4.78988 9.14432ZM5.33067 9.82672L3.55378 10.7447L3.55382 10.7448L5.33067 9.82672ZM5.48342 10.1092L3.76978 11.1405L3.76978 11.1405L5.48342 10.1092ZM5.5686 10.2488L3.86454 11.2958L3.86961 11.304L5.5686 10.2488ZM5.57001 10.251L7.27382 9.2036L7.269 9.19585L5.57001 10.251ZM5.99954 11.1765L3.99954 11.1764V11.1765L5.99954 11.1765ZM5.28987 11.9806L5.28985 13.9806H5.28988L5.28987 11.9806ZM5.11194 11.9891L5.26692 13.9831L5.26716 13.983L5.11194 11.9891ZM4.40277 11.9806L4.26 13.9755L4.26001 13.9755L4.40277 11.9806ZM3.08019 11.2496L4.62111 9.9746L4.6211 9.97459L3.08019 11.2496ZM1.99954 7.02442L-0.000457764 7.02233V7.02443L1.99954 7.02442ZM1.99957 7.00006L3.99957 7.00215L3.99957 6.99849L1.99957 7.00006ZM1.99955 6.9757L-0.000452042 6.97571L-0.00045073 6.97727L1.99955 6.9757ZM3.08019 2.75055L1.53925 1.4756L1.53924 1.47561L3.08019 2.75055ZM4.40278 2.01956L4.26005 0.0246562L4.26001 0.0246586L4.40278 2.01956ZM5.11193 2.01106L5.26732 0.0171041L5.26706 0.0170838L5.11193 2.01106ZM5.28988 2.01956L5.28986 4.01956H5.28989L5.28988 2.01956ZM5.99954 2.82364L3.99954 2.82352V2.82361L5.99954 2.82364ZM5.57002 3.74908L3.86622 2.70167L3.86612 2.70182L5.57002 3.74908ZM5.56702 3.75395L3.86313 2.7067L3.86302 2.70687L5.56702 3.75395ZM5.48342 3.8909L3.76974 2.85972L3.76972 2.85977L5.48342 3.8909ZM5.33065 4.17349L7.10745 5.09163L7.10759 5.09135L5.33065 4.17349ZM4.78987 4.85581L4.90286 6.85262L4.90309 6.8526L4.78987 4.85581ZM4.33785 4.78894L3.88411 6.73679L3.88418 6.7368L4.33785 4.78894ZM3.98342 4.73885L3.62686 2.77089L3.6268 2.77091L3.98342 4.73885ZM3.49956 5.23593L5.44589 5.69612L5.44592 5.696L3.49956 5.23593ZM5.35473 6.94982C5.35457 6.94348 5.35448 6.93869 5.35443 6.93537C5.35439 6.93199 5.35439 6.93077 5.35439 6.93152L1.35439 6.93216C1.3544 6.97236 1.35504 7.01237 1.35599 7.05029L5.35473 6.94982ZM5.35435 7.06833L5.35489 7.04357L1.35583 6.95653L1.35529 6.98129L5.35435 7.06833ZM5.35439 7.06683C5.35439 7.0692 5.35436 7.06792 5.35447 7.06232L1.35517 6.98731C1.35468 7.01333 1.35437 7.04111 1.35439 7.06975L5.35439 7.06683ZM5.44589 8.30406C5.44755 8.31106 5.43692 8.26214 5.42192 8.1366C5.40844 8.0237 5.39596 7.88796 5.38535 7.74295C5.36348 7.44397 5.35439 7.17342 5.35439 7.06827L1.35439 7.06831C1.35439 7.29942 1.36949 7.67215 1.396 8.03472C1.41998 8.36248 1.46403 8.84718 1.5532 9.22434L5.44589 8.30406ZM4.34031 7.29338C4.31793 7.28932 4.63405 7.33301 4.95012 7.58044C5.29948 7.85392 5.41612 8.17812 5.44589 8.30404L1.5532 9.22436C1.67976 9.75964 1.95768 10.3178 2.48446 10.7301C2.97795 11.1164 3.48762 11.204 3.62655 11.2292L4.34031 7.29338ZM3.88407 7.26335C3.84514 7.27242 3.82409 7.27728 3.80664 7.28108C3.78958 7.2848 3.79283 7.28376 3.80808 7.28122C3.82096 7.27908 3.87016 7.27112 3.94221 7.26717C4.00698 7.26362 4.15268 7.25936 4.34022 7.29336L3.62663 11.2292C4.02771 11.3019 4.37136 11.2425 4.46375 11.2271C4.60068 11.2044 4.73705 11.1717 4.79163 11.159L3.88407 7.26335ZM4.9031 7.14753C4.42153 7.12022 3.94167 7.24993 3.88416 7.26332L4.79153 11.159C4.8319 11.1496 4.8568 11.1439 4.87935 11.139C4.90087 11.1343 4.90883 11.1329 4.9081 11.1331C4.90788 11.1331 4.8886 11.1365 4.85541 11.1393C4.82346 11.142 4.76084 11.1459 4.67665 11.1411L4.9031 7.14753ZM7.10756 8.90877C7.04365 8.78504 6.89432 8.48831 6.71255 8.22775C6.61949 8.09435 6.45972 7.88359 6.2273 7.6864C6.00398 7.49693 5.55306 7.18434 4.90296 7.14752L4.67679 11.1411C4.12366 11.1098 3.76857 10.846 3.63951 10.7365C3.50136 10.6193 3.43428 10.5197 3.43192 10.5163C3.43156 10.5158 3.45566 10.5548 3.55378 10.7447L7.10756 8.90877ZM7.19707 9.07801C7.19773 9.0791 7.19079 9.06749 7.173 9.0342C7.15527 9.00103 7.13568 8.96319 7.10752 8.90868L3.55382 10.7448C3.59811 10.8305 3.68124 10.9933 3.76978 11.1405L7.19707 9.07801ZM7.27265 9.20176C7.24152 9.15109 7.2178 9.11246 7.19706 9.078L3.76978 11.1405C3.80183 11.1937 3.83566 11.2487 3.86456 11.2958L7.27265 9.20176ZM7.269 9.19585L7.2676 9.19358L3.86961 11.304L3.87102 11.3062L7.269 9.19585ZM7.99954 11.1765C7.99955 10.5333 7.71728 9.9924 7.63863 9.83781C7.51177 9.58845 7.35968 9.34331 7.2738 9.20361L3.86622 11.2985C3.91523 11.3782 3.95588 11.4444 3.99379 11.5088C4.03161 11.5731 4.0571 11.6194 4.07349 11.6516C4.08123 11.6668 4.08437 11.6738 4.08427 11.6736C4.08411 11.6733 4.08269 11.67 4.08033 11.6641C4.07799 11.6582 4.07428 11.6486 4.06974 11.6355C4.06143 11.6116 4.04585 11.5633 4.03156 11.4952C4.01772 11.4293 3.99954 11.3189 3.99954 11.1764L7.99954 11.1765ZM5.28988 13.9806C6.00655 13.9806 6.51742 13.6197 6.65487 13.522C6.8833 13.3596 7.07573 13.1733 7.22533 13.0047C7.37649 12.8343 7.53478 12.6248 7.6674 12.3868C7.76669 12.2087 7.99956 11.7603 7.99954 11.1764L3.99954 11.1765C3.99954 10.9194 4.05511 10.7295 4.08591 10.6394C4.12001 10.5397 4.15535 10.4719 4.17343 10.4395C4.20826 10.377 4.23148 10.352 4.23344 10.3498C4.23384 10.3493 4.26297 10.3146 4.33717 10.2619C4.37468 10.2352 4.45705 10.1801 4.58081 10.1257C4.68924 10.0781 4.94184 9.98058 5.28986 9.98058L5.28988 13.9806ZM5.26716 13.983C5.27449 13.9825 5.28003 13.982 5.28528 13.9816C5.29036 13.9812 5.29419 13.981 5.29729 13.9807C5.30343 13.9803 5.3055 13.9802 5.30531 13.9802C5.30488 13.9802 5.30262 13.9803 5.29924 13.9804C5.29582 13.9805 5.29257 13.9806 5.28985 13.9806L5.28989 9.98058C5.13597 9.98057 5.01523 9.99054 4.95672 9.9951L5.26716 13.983ZM4.26001 13.9755C4.78765 14.0132 5.04054 14.0006 5.26692 13.9831L4.95696 9.99508C4.9053 9.99909 4.89322 9.99992 4.86055 10C4.81714 10.0002 4.72482 9.9985 4.54553 9.98567L4.26001 13.9755ZM1.53927 12.5246C1.76159 12.7932 2.09191 13.1041 2.50129 13.3678C2.9095 13.6307 3.5142 13.9221 4.26 13.9755L4.54554 9.98567C4.61667 9.99077 4.66125 10.0059 4.67548 10.0113C4.68908 10.0165 4.68533 10.0166 4.66715 10.0049C4.64942 9.99348 4.63035 9.97873 4.61448 9.96456C4.60716 9.95803 4.60315 9.95395 4.60274 9.95353C4.60183 9.95259 4.60833 9.95915 4.62111 9.9746L1.53927 12.5246ZM-0.000457764 7.02443C-0.000452042 8.46358 0.267138 9.67782 0.572205 10.5822C0.852751 11.4139 1.21841 12.1368 1.53928 12.5246L4.6211 9.97459C4.72053 10.0948 4.70979 10.114 4.61876 9.93183C4.54936 9.79295 4.4558 9.58062 4.36237 9.30367C4.17551 8.7497 3.99955 7.96832 3.99954 7.02442L-0.000457764 7.02443ZM-0.00043118 6.99797L-0.000456691 7.02233L3.99954 7.02652L3.99957 7.00215L-0.00043118 6.99797ZM-0.00045073 6.97727L-0.000431657 7.00163L3.99957 6.99849L3.99955 6.97413L-0.00045073 6.97727ZM1.53924 1.47561C1.21842 1.86337 0.852766 2.58623 0.572207 3.41793C0.267136 4.3223 -0.000457168 5.53655 -0.000451446 6.97571L3.99955 6.97569C3.99954 6.0318 4.1755 5.25043 4.36237 4.69647C4.4558 4.41951 4.54936 4.20718 4.61876 4.0683C4.70979 3.88613 4.72054 3.90535 4.62114 4.02549L1.53924 1.47561ZM4.26001 0.0246586C3.51422 0.0780308 2.90952 0.369424 2.50131 0.632322C2.09194 0.895974 1.76159 1.20687 1.53925 1.4756L4.62113 4.0255C4.60835 4.04095 4.60184 4.04752 4.60275 4.04658C4.60315 4.04617 4.60716 4.0421 4.61447 4.03557C4.63034 4.0214 4.64941 4.00666 4.66714 3.99524C4.68532 3.98353 4.68908 3.98368 4.67548 3.98885C4.66125 3.99426 4.61667 4.00936 4.54554 4.01445L4.26001 0.0246586ZM5.26706 0.0170838C5.04046 -0.000545502 4.78766 -0.0130932 4.26005 0.0246562L4.54551 4.01446C4.72492 4.00162 4.81724 3.9999 4.86064 4.00007C4.89324 4.0002 4.90525 4.00102 4.95681 4.00503L5.26706 0.0170838ZM5.28989 0.0195608C5.29264 0.0195608 5.29592 0.0196048 5.29935 0.0197051C5.30276 0.0198045 5.30503 0.0199214 5.30548 0.0199459C5.30568 0.0199568 5.30361 0.0198468 5.29747 0.0194052C5.29437 0.0191824 5.29054 0.0188978 5.28546 0.0185093C5.2802 0.0181075 5.27466 0.0176761 5.26732 0.0171041L4.95654 4.00501C5.01501 4.00957 5.13585 4.01956 5.28986 4.01956L5.28989 0.0195608ZM7.99954 2.82376C7.99958 2.23988 7.76669 1.79146 7.6674 1.61331C7.53479 1.37538 7.37649 1.1658 7.22533 0.995457C7.07574 0.826874 6.8833 0.640533 6.65487 0.478138C6.51741 0.380414 6.00654 0.0195572 5.28987 0.0195608L5.28989 4.01956C4.94186 4.01956 4.68926 3.92207 4.58083 3.87443C4.45707 3.82007 4.3747 3.76492 4.33718 3.73825C4.26299 3.6855 4.23386 3.65084 4.23345 3.65039C4.23149 3.64817 4.20827 3.62317 4.17343 3.56067C4.15535 3.52822 4.12001 3.46041 4.08591 3.36069C4.05511 3.27061 3.99953 3.08065 3.99954 2.82352L7.99954 2.82376ZM7.27382 4.79649C7.3597 4.65679 7.51178 4.41166 7.63864 4.1623C7.71728 4.00771 7.99953 3.46688 7.99954 2.82367L3.99954 2.82361C3.99954 2.68115 4.01773 2.57074 4.03156 2.50486C4.04585 2.43679 4.06143 2.38853 4.06974 2.3646C4.07428 2.35151 4.07799 2.34188 4.08032 2.33601C4.08268 2.33009 4.08411 2.32685 4.08427 2.32649C4.08436 2.32629 4.08123 2.33333 4.07348 2.34857C4.05709 2.38077 4.0316 2.42707 3.99378 2.49133C3.95587 2.55572 3.91522 2.62196 3.86622 2.70167L7.27382 4.79649ZM7.27092 4.80121L7.27391 4.79634L3.86612 2.70182L3.86313 2.7067L7.27092 4.80121ZM7.19709 4.92207C7.2173 4.88849 7.24043 4.85082 7.27102 4.80104L3.86302 2.70687C3.83471 2.75294 3.80136 2.80718 3.76974 2.85972L7.19709 4.92207ZM7.10759 5.09135C7.13574 5.03686 7.15533 4.999 7.17305 4.96585C7.19084 4.93256 7.19778 4.92094 7.19712 4.92202L3.76972 2.85977C3.68116 3.00695 3.59804 3.1698 3.55371 3.25562L7.10759 5.09135ZM4.90309 6.8526C5.55321 6.81574 6.0041 6.50308 6.22731 6.31369C6.45967 6.11654 6.61941 5.90584 6.71246 5.77247C6.8942 5.51198 7.04354 5.21531 7.10745 5.09163L3.55385 3.25534C3.45574 3.44522 3.43162 3.48422 3.43195 3.48375C3.43429 3.4804 3.50134 3.3808 3.63944 3.26362C3.7684 3.15421 4.12347 2.89039 4.67665 2.85902L4.90309 6.8526ZM3.88418 6.7368C3.94175 6.75021 4.42135 6.87987 4.90286 6.85262L4.67688 2.85901C4.7609 2.85425 4.82343 2.85808 4.8554 2.86082C4.8886 2.86367 4.9079 2.86704 4.90816 2.86708C4.90891 2.86721 4.90097 2.86585 4.87944 2.86116C4.85686 2.85625 4.83196 2.85049 4.79151 2.84107L3.88418 6.7368ZM4.33999 6.70681C4.15259 6.74077 4.007 6.73651 3.94226 6.73297C3.87025 6.72903 3.82108 6.72107 3.80819 6.71893C3.79295 6.7164 3.7897 6.71535 3.80675 6.71907C3.82417 6.72286 3.84522 6.72773 3.88411 6.73679L4.79158 2.84108C4.73691 2.82835 4.60058 2.79574 4.46362 2.77299C4.37117 2.75764 4.02772 2.69826 3.62686 2.77089L4.33999 6.70681ZM5.44592 5.696C5.41615 5.82194 5.29952 6.14615 4.95015 6.41966C4.63404 6.66713 4.31789 6.71082 4.34005 6.7068L3.6268 2.77091C3.48765 2.79612 2.97795 2.88366 2.48443 3.27002C1.95764 3.68242 1.67972 4.24056 1.55319 4.77587L5.44592 5.696ZM5.35439 6.93182C5.35439 6.8267 5.36348 6.55617 5.38535 6.25719C5.39596 6.11218 5.40844 5.97644 5.42192 5.86355C5.43692 5.73801 5.44755 5.6891 5.44589 5.69612L1.55322 4.77575C1.46404 5.15292 1.41998 5.63764 1.39601 5.9654C1.36949 6.32797 1.35439 6.70072 1.35439 6.93186L5.35439 6.93182Z" fill="#333333" mask="url(#path-1-outside-1_3484_25)"/>
</g>
</svg>
