<svg width="20" height="20" viewBox="0 0 20 20" fill="none" xmlns="http://www.w3.org/2000/svg">
<path opacity="0.5" fill-rule="evenodd" clip-rule="evenodd" d="M13 6V3C13 2.73478 13.1054 2.48044 13.2929 2.29291C13.4804 2.10537 13.7348 2 14 2C14.2652 2 14.5196 2.10537 14.7071 2.29291C14.8946 2.48044 15 2.73478 15 3V6H13ZM10 6V1C10 0.734784 10.1054 0.480444 10.2929 0.292908C10.4804 0.105371 10.7348 0 11 0C11.2652 0 11.5196 0.105371 11.7071 0.292908C11.8946 0.480444 12 0.734784 12 1V6H10ZM7 6V3C7 2.73478 7.10536 2.48044 7.29289 2.29291C7.48043 2.10537 7.73478 2 8 2C8.26522 2 8.51957 2.10537 8.70711 2.29291C8.89464 2.48044 9 2.73478 9 3V6H7ZM4 6V5C4 4.73478 4.10536 4.48044 4.29289 4.29291C4.48043 4.10537 4.73478 4 5 4C5.26522 4 5.51957 4.10537 5.70711 4.29291C5.89464 4.48044 6 4.73478 6 5V6H4Z" fill="#999999"/>
<path fill-rule="evenodd" clip-rule="evenodd" d="M17 16V9C17 8.73478 16.8946 8.48044 16.7071 8.29291C16.5196 8.10537 16.2652 8 16 8C15.7348 8 15.4804 8.10537 15.2929 8.29291C15.1054 8.48044 15 8.73478 15 9V12.051C14.8348 12.0218 14.6677 12.0048 14.5 12C13.5717 12 12.6815 12.3687 12.0251 13.0251C11.3688 13.6815 11 14.5717 11 15.5C11.0059 15.6678 11.0246 15.835 11.056 16H0V6H20V16H17ZM5 9C4.60444 9 4.21775 9.1173 3.88885 9.33707C3.55996 9.55683 3.30361 9.86917 3.15224 10.2346C3.00086 10.6001 2.96127 11.0022 3.03844 11.3902C3.11561 11.7781 3.30608 12.1345 3.58578 12.4142C3.86549 12.6939 4.22186 12.8844 4.60982 12.9616C4.99778 13.0387 5.39991 12.9991 5.76537 12.8477C6.13082 12.6964 6.44317 12.44 6.66293 12.1111C6.8827 11.7822 7 11.3956 7 11C7 10.4696 6.78929 9.96086 6.41422 9.58578C6.03914 9.21071 5.53043 9 5 9Z" fill="#999999"/>
<path opacity="0.7" d="M5 13C6.10457 13 7 12.1046 7 11C7 9.89543 6.10457 9 5 9C3.89543 9 3 9.89543 3 11C3 12.1046 3.89543 13 5 13Z" fill="#999999"/>
<path opacity="0.5" fill-rule="evenodd" clip-rule="evenodd" d="M17 16.937C16.4192 17.873 15.6094 18.6454 14.647 19.1814C13.6847 19.7173 12.6015 19.9991 11.5 20H10.5C9.21674 20 7.96219 19.6202 6.89445 18.9083C5.82672 18.1965 4.99356 17.1845 4.5 16H11.056C11.0246 15.835 11.0059 15.6678 11 15.5C11 14.5717 11.3688 13.6815 12.0251 13.0251C12.6815 12.3687 13.5717 12 14.5 12C14.6677 12.0048 14.8348 12.0218 15 12.051V9C15 8.73478 15.1054 8.48044 15.2929 8.29291C15.4804 8.10537 15.7348 8 16 8C16.2652 8 16.5196 8.10537 16.7071 8.29291C16.8946 8.48044 17 8.73478 17 9V16.937Z" fill="#999999"/>
</svg>
