<svg width="35" height="10" viewBox="0 0 35 10" fill="none" xmlns="http://www.w3.org/2000/svg">
<path fill-rule="evenodd" clip-rule="evenodd" d="M9.01001 9.00025V3.65525H8.76599L7.026 9.00025H4.95999H4.95401L3.21799 3.65525H2.97601V9.00025H0V0.000253377H2.97601C3.3429 -0.00443933 3.70172 0.108056 4.00027 0.321359C4.29883 0.534662 4.52151 0.83765 4.63599 1.18626V1.18626L5.85901 5.34626H6.116L7.341 1.18626C7.45621 0.836334 7.68035 0.532436 7.98065 0.31904C8.28095 0.105644 8.64166 -0.00605687 9.01001 0.000253377H11.986V9.00025H9.01001Z" fill="#999999"/>
<path fill-rule="evenodd" clip-rule="evenodd" d="M19.978 9V3.655H19.7509L17.8699 8.14001C17.7543 8.39644 17.5672 8.61401 17.3309 8.76657C17.0946 8.91914 16.8192 9.00019 16.538 9H14.0129V0H17.0129V5.345H17.2509L19.1559 0.855011L19.171 0.821014C19.2913 0.57571 19.478 0.36907 19.71 0.22464C19.9419 0.08021 20.2097 0.00377002 20.4829 0.0039978H23.0079V9.004H19.9799L19.978 9Z" fill="#999999"/>
<path fill-rule="evenodd" clip-rule="evenodd" d="M31.5471 6.01416H28.019V9.00015H25.019V3.99316H34.972C34.6628 4.62922 34.1731 5.16008 33.564 5.5195C32.9549 5.87892 32.2533 6.05097 31.5471 6.01416V6.01416Z" fill="#999999"/>
<path opacity="0.7" fill-rule="evenodd" clip-rule="evenodd" d="M34.919 3.00601H29.507C27.035 3.00601 24.979 1.706 24.546 0H31.569C33.459 0 34.991 1.11699 34.991 2.49399C34.9908 2.66716 34.9666 2.83949 34.919 3.00601V3.00601Z" fill="#999999"/>
</svg>
