<svg width="14" height="18" viewBox="0 0 14 18" fill="none" xmlns="http://www.w3.org/2000/svg">
<path fill-rule="evenodd" clip-rule="evenodd" d="M12.8389 13.2681L10.8189 14.0021C10.7542 14.0246 10.6834 14.0212 10.6212 13.9924C10.5591 13.9637 10.5106 13.9119 10.4859 13.8481L9.43887 11.0161H4.53888L3.49487 13.8421C3.47035 13.9059 3.42205 13.9577 3.36014 13.9866C3.29822 14.0155 3.22751 14.0193 3.16287 13.9971L1.14587 13.2631C1.11407 13.2532 1.08459 13.2369 1.05917 13.2154C1.03376 13.1938 1.01294 13.1674 0.997925 13.1377C0.982911 13.1079 0.974011 13.0755 0.971771 13.0422C0.969531 13.009 0.973976 12.9756 0.984863 12.9441L5.06287 2.24411C5.22704 1.87117 5.49619 1.55406 5.83746 1.33142C6.17874 1.10878 6.57739 0.990234 6.98486 0.990234C7.39234 0.990234 7.79102 1.10878 8.13229 1.33142C8.47357 1.55406 8.74271 1.87117 8.90689 2.24411L12.9999 12.9501C13.0108 12.9816 13.0152 13.0148 13.0129 13.048C13.0107 13.0812 13.0018 13.1136 12.9868 13.1432C12.9718 13.1729 12.9509 13.1993 12.9255 13.2207C12.9001 13.2422 12.8706 13.2583 12.8389 13.2681ZM7.30887 4.94412L6.98788 4.04413V4.03711L5.14288 9.00012H8.83487L7.30887 4.94412ZM0.983887 16.0001H13.0159C13.2715 16.0083 13.514 16.1156 13.692 16.2993C13.87 16.4831 13.9695 16.7288 13.9695 16.9846C13.9695 17.2404 13.87 17.4862 13.692 17.67C13.514 17.8537 13.2715 17.961 13.0159 17.9691H0.983887C0.728212 17.961 0.485716 17.8537 0.307739 17.67C0.129763 17.4862 0.0302734 17.2404 0.0302734 16.9846C0.0302734 16.7288 0.129763 16.4831 0.307739 16.2993C0.485716 16.1156 0.728212 16.0083 0.983887 16.0001Z" fill="#999999"/>
</svg>
