<svg width="26" height="16" viewBox="0 0 26 16" fill="none" xmlns="http://www.w3.org/2000/svg">
<path opacity="0.5" fill-rule="evenodd" clip-rule="evenodd" d="M17 16C15.5948 15.9999 14.2146 15.6276 13 14.921C14.2158 14.2203 15.2256 13.2118 15.9277 11.9968C16.6299 10.7818 16.9995 9.40327 16.9995 8C16.9995 6.59674 16.6299 5.21823 15.9277 4.00324C15.2256 2.78825 14.2158 1.77968 13 1.07901C14.0626 0.462989 15.2527 0.0998743 16.4782 0.0178567C17.7037 -0.064161 18.9316 0.137116 20.0668 0.606052C21.202 1.07499 22.214 1.79899 23.0243 2.72199C23.8346 3.64499 24.4216 4.74219 24.7396 5.92853C25.0576 7.11487 25.0982 8.35852 24.8582 9.56308C24.6183 10.7676 24.1042 11.9008 23.3558 12.8747C22.6074 13.8486 21.6448 14.637 20.5426 15.179C19.4404 15.721 18.2282 16.0019 17 16Z" fill="#999999"/>
<path fill-rule="evenodd" clip-rule="evenodd" d="M9 8.00001C9.00035 9.40326 9.37021 10.7817 10.0724 11.9966C10.7746 13.2116 11.7843 14.2202 13 14.921C11.7841 15.6259 10.4039 15.9981 8.99835 16C7.59284 16.0019 6.21162 15.6335 4.99377 14.9318C3.77593 14.2301 2.76446 13.22 2.06116 12.0031C1.35785 10.7862 0.987549 9.40552 0.987549 8.00001C0.987549 6.59449 1.35785 5.21379 2.06116 3.99689C2.76446 2.78 3.77593 1.76988 4.99377 1.06821C6.21162 0.366552 7.59284 -0.00188807 8.99835 7.27576e-06C10.4039 0.00190262 11.7841 0.374074 13 1.07902C11.7843 1.77985 10.7746 2.78846 10.0724 4.00339C9.37021 5.21833 9.00035 6.59675 9 8.00001Z" fill="#999999"/>
<path opacity="0.75" fill-rule="evenodd" clip-rule="evenodd" d="M13 14.9211C11.7842 14.2204 10.7744 13.2118 10.0723 11.9969C9.37018 10.7819 9.00049 9.40336 9.00049 8.00009C9.00049 6.59682 9.37018 5.21831 10.0723 4.00333C10.7744 2.78834 11.7842 1.77976 13 1.0791C14.2159 1.77976 15.2256 2.78834 15.9278 4.00333C16.6299 5.21831 16.9996 6.59682 16.9996 8.00009C16.9996 9.40336 16.6299 10.7819 15.9278 11.9969C15.2256 13.2118 14.2159 14.2204 13 14.9211Z" fill="#999999"/>
</svg>
