<svg width="19" height="19" viewBox="0 0 19 19" fill="none" xmlns="http://www.w3.org/2000/svg">
<path fill-rule="evenodd" clip-rule="evenodd" d="M5.83499 11.212V11.219V11.212L17.935 4.241C18.631 5.57198 18.9963 7.05102 19 8.55301C19 11.0726 17.9991 13.4889 16.2175 15.2705C14.4359 17.0521 12.0196 18.053 9.5 18.053C6.98044 18.053 4.56407 17.0521 2.78247 15.2705C1.00088 13.4889 0 11.0726 0 8.55301C0 8.32201 0.0110151 8.094 0.0280151 7.867L5.83499 11.212ZM5.84201 10.048L0.170013 6.78C0.231224 6.45704 0.309655 6.13758 0.404999 5.823L5.83499 8.952V8.95801V8.952L16.861 2.60001C17.061 2.84601 17.249 3.10167 17.425 3.367L5.84201 10.048ZM16.176 1.83401L5.84201 7.78699L0.756012 4.85599C0.880263 4.56533 1.01944 4.2813 1.173 4.005L5.83499 6.69101V6.69699V6.69101L15.413 1.173C15.6785 1.38008 15.9332 1.60072 16.176 1.83401ZM5.83899 4.43399V4.42801L13.537 0C13.8729 0.156667 14.1992 0.333309 14.514 0.528992L5.84201 5.52899L1.71201 3.14999C1.89527 2.8893 2.0915 2.63799 2.29999 2.397L5.83499 4.43301L5.83899 4.43399Z" fill="#999999"/>
</svg>
