<svg width="33" height="12" viewBox="0 0 33 12" fill="none" xmlns="http://www.w3.org/2000/svg">
<path fill-rule="evenodd" clip-rule="evenodd" d="M30.1079 11.0002C30.1079 11.0002 29.8779 9.60017 29.8009 9.24817H26.4829C26.3909 9.52316 25.9319 11.0002 25.9319 11.0002H23.2249L27.0639 1.84417C27.1593 1.57194 27.3446 1.34036 27.5893 1.18765C27.834 1.03493 28.1235 0.970216 28.4099 1.00418H30.4099L32.5099 11.0042H30.1099L30.1079 11.0002ZM28.7769 4.55917L28.5929 3.70517C28.4709 4.08617 28.2409 4.68216 28.2569 4.66616C28.2569 4.66616 27.4309 6.87819 27.2319 7.45819H29.3729C29.2659 6.95519 28.7769 4.55917 28.7769 4.55917ZM23.2089 3.30917C22.6043 3.03612 21.945 2.90545 21.2819 2.92718C20.2569 2.92718 19.7979 3.35419 19.7819 3.78119C19.7819 4.25519 20.3329 4.55918 21.2499 5.01718C22.7339 5.71718 23.4219 6.58918 23.4069 7.73318C23.3919 9.79218 21.6329 11.1332 18.9069 11.1332C17.9238 11.136 16.9488 10.9552 16.0319 10.6002L16.3829 8.35717L16.7349 8.52517C17.486 8.89464 18.3151 9.0778 19.1519 9.05917C19.4874 9.12462 19.8352 9.0601 20.1248 8.87869C20.4145 8.69728 20.6244 8.41256 20.7119 8.08218C20.7119 7.64018 20.3759 7.31917 19.3659 6.83117C18.3869 6.35917 17.0869 5.56619 17.1019 4.13119C17.1179 2.19419 18.9069 0.831173 21.4619 0.831173C22.2554 0.826408 23.0432 0.965675 23.7869 1.24218L23.4349 3.40918L23.2089 3.30917ZM11.8289 11.0002L13.4509 1.00018H16.0359L14.4149 11.0002H11.8289ZM5.60394 11.0002L3.59694 3.47216L3.43994 2.86117C3.79365 3.03812 4.12867 3.25018 4.43994 3.49417C5.3813 4.26243 6.18627 5.18404 6.82094 6.22018L6.81294 6.17718L6.86295 6.43618L7.13895 7.80917L9.67294 1.00018H12.4109L8.34193 11.0002H5.59995H5.60394Z" fill="#999999"/>
<path opacity="0.5" fill-rule="evenodd" clip-rule="evenodd" d="M4.43497 3.49426C4.12369 3.25028 3.78867 3.03822 3.43497 2.86127L3.28796 2.30728C2.5579 1.87704 1.77772 1.53816 0.964966 1.29828V0.988281H4.93597C5.17403 0.988861 5.40467 1.07107 5.5894 1.22122C5.77413 1.37137 5.90176 1.58035 5.95097 1.81326L6.81097 6.22028C6.17781 5.18453 5.37454 4.26294 4.43497 3.49426Z" fill="#999999"/>
</svg>
