<svg width="8" height="14" viewBox="0 0 8 14" fill="none" xmlns="http://www.w3.org/2000/svg">
<g opacity="0.5">
<mask id="path-1-outside-1_3507_3" maskUnits="userSpaceOnUse" x="0" y="0" width="8" height="14" fill="black">
<rect fill="white" width="8" height="14"/>
<path d="M3.35485 6.93178C3.35485 6.95149 3.35517 6.97436 3.35582 6.99999L3.35528 7.02475C3.35498 7.04056 3.35484 7.05509 3.35485 7.06823C3.35485 7.40449 3.40323 8.35478 3.5 8.76414C3.59679 9.1735 3.82258 9.23197 3.98388 9.26122C4.06227 9.27543 4.19399 9.24475 4.33831 9.21113C4.49087 9.17559 4.65776 9.13674 4.79033 9.14426C4.98426 9.15524 5.1691 9.51302 5.33113 9.82666C5.38467 9.9303 5.43581 10.0293 5.48388 10.1092C5.51027 10.153 5.53905 10.1999 5.56906 10.2487L5.57047 10.251C5.76056 10.5602 6 10.9497 6 11.1764C6.00001 11.4396 5.51613 11.9805 5.29033 11.9805C5.22154 11.9805 5.16922 11.9846 5.1124 11.989C4.98267 11.9991 4.82933 12.011 4.40323 11.9805C3.79032 11.9366 3.27419 11.4834 3.08065 11.2495C2.8871 11.0156 2.00001 9.40742 2 7.02436L2.00003 7L2.00001 6.97564C2 4.59259 2.88711 2.98441 3.08065 2.75049C3.27419 2.51656 3.79033 2.06336 4.40324 2.0195C4.82945 1.989 4.98266 2.0009 5.11239 2.011C5.16923 2.01543 5.22155 2.0195 5.29034 2.0195C5.51614 2.0195 6.00002 2.56044 6 2.82358C6 3.05031 5.76055 3.43982 5.57047 3.74902L5.56748 3.75389C5.53803 3.80182 5.50979 3.84777 5.48388 3.89084C5.4358 3.97074 5.38466 4.06975 5.33111 4.17342C5.16908 4.48699 4.98421 4.84476 4.79033 4.85575C4.65767 4.86326 4.49094 4.82442 4.33831 4.78887C4.19398 4.75525 4.06227 4.72459 3.98388 4.73879C3.82258 4.76802 3.59678 4.82651 3.50001 5.23587C3.40323 5.64522 3.35485 6.59552 3.35485 6.93178Z"/>
</mask>
<path d="M3.35582 6.99999L5.35534 7.04351L5.35636 6.99664L5.35519 6.94976L3.35582 6.99999ZM3.35485 6.93178L1.35485 6.9318L1.35485 6.9321L3.35485 6.93178ZM3.35528 7.02475L1.35574 6.98123L1.35563 6.98725L3.35528 7.02475ZM3.35485 7.06823L5.35485 7.06821L5.35484 7.06677L3.35485 7.06823ZM3.5 8.76414L1.55366 9.22428L1.55366 9.2243L3.5 8.76414ZM3.98388 9.26122L3.627 11.2291L3.62709 11.2291L3.98388 9.26122ZM4.33831 9.21113L3.88462 7.26326L3.88453 7.26329L4.33831 9.21113ZM4.79033 9.14426L4.67711 11.1411L4.67725 11.1411L4.79033 9.14426ZM5.33113 9.82666L3.55423 10.7446L3.55428 10.7447L5.33113 9.82666ZM5.48388 10.1092L3.77024 11.1404L3.77024 11.1404L5.48388 10.1092ZM5.56906 10.2487L3.865 11.2957L3.87007 11.3039L5.56906 10.2487ZM5.57047 10.251L7.27428 9.20354L7.26946 9.19579L5.57047 10.251ZM6 11.1764L4 11.1764L4 11.1765L6 11.1764ZM5.29033 11.9805L5.29031 13.9805L5.29034 13.9805L5.29033 11.9805ZM5.1124 11.989L5.26738 13.983L5.26761 13.983L5.1124 11.989ZM4.40323 11.9805L4.26045 13.9754L4.26047 13.9754L4.40323 11.9805ZM3.08065 11.2495L4.62156 9.97454L4.62156 9.97453L3.08065 11.2495ZM2 7.02436L-8.42181e-09 7.02227L0 7.02437L2 7.02436ZM2.00003 7L4.00003 7.00209L4.00002 6.99843L2.00003 7ZM2.00001 6.97564L5.76677e-06 6.97565L6.99411e-06 6.97721L2.00001 6.97564ZM3.08065 2.75049L1.53971 1.47554L1.5397 1.47555L3.08065 2.75049ZM4.40324 2.0195L4.26051 0.0245951L4.26047 0.0245975L4.40324 2.0195ZM5.11239 2.011L5.26778 0.0170431L5.26752 0.0170228L5.11239 2.011ZM5.29034 2.0195L5.29032 4.0195L5.29035 4.0195L5.29034 2.0195ZM6 2.82358L4 2.82346L4 2.82355L6 2.82358ZM5.57047 3.74902L3.86667 2.70161L3.86658 2.70176L5.57047 3.74902ZM5.56748 3.75389L3.86359 2.70663L3.86348 2.70681L5.56748 3.75389ZM5.48388 3.89084L3.7702 2.85966L3.77017 2.85971L5.48388 3.89084ZM5.33111 4.17342L7.10791 5.09157L7.10805 5.09129L5.33111 4.17342ZM4.79033 4.85575L4.90332 6.85256L4.90355 6.85254L4.79033 4.85575ZM4.33831 4.78887L3.88457 6.73673L3.88464 6.73674L4.33831 4.78887ZM3.98388 4.73879L3.62731 2.77083L3.62725 2.77084L3.98388 4.73879ZM3.50001 5.23587L5.44635 5.69606L5.44638 5.69594L3.50001 5.23587ZM5.35519 6.94976C5.35503 6.94342 5.35494 6.93863 5.35489 6.93531C5.35484 6.93192 5.35485 6.93071 5.35485 6.93145L1.35485 6.9321C1.35485 6.9723 1.3555 7.01231 1.35645 7.05023L5.35519 6.94976ZM5.35481 7.06827L5.35534 7.04351L1.35629 6.95647L1.35575 6.98123L5.35481 7.06827ZM5.35484 7.06677C5.35485 7.06914 5.35482 7.06786 5.35493 7.06225L1.35563 6.98725C1.35514 7.01327 1.35482 7.04105 1.35485 7.06969L5.35484 7.06677ZM5.44635 8.304C5.44801 8.311 5.43737 8.26208 5.42238 8.13653C5.40889 8.02364 5.39641 7.8879 5.38581 7.74288C5.36394 7.4439 5.35485 7.17336 5.35485 7.06821L1.35485 7.06825C1.35485 7.29936 1.36994 7.67209 1.39646 8.03466C1.42043 8.36242 1.46449 8.84712 1.55366 9.22428L5.44635 8.304ZM4.34077 7.29332C4.31839 7.28926 4.63451 7.33295 4.95057 7.58038C5.29994 7.85386 5.41658 8.17806 5.44635 8.30398L1.55366 9.2243C1.68021 9.75958 1.95814 10.3177 2.48492 10.7301C2.97841 11.1164 3.48807 11.2039 3.627 11.2291L4.34077 7.29332ZM3.88453 7.26329C3.8456 7.27235 3.82454 7.27722 3.8071 7.28102C3.79004 7.28474 3.79329 7.2837 3.80853 7.28116C3.82142 7.27902 3.87062 7.27106 3.94267 7.26711C4.00744 7.26356 4.15314 7.2593 4.34068 7.2933L3.62709 11.2291C4.02817 11.3019 4.37182 11.2424 4.46421 11.2271C4.60114 11.2043 4.73751 11.1717 4.79209 11.159L3.88453 7.26329ZM4.90356 7.14747C4.42199 7.12016 3.94213 7.24987 3.88462 7.26326L4.79199 11.159C4.83236 11.1496 4.85726 11.1438 4.87981 11.1389C4.90133 11.1342 4.90929 11.1329 4.90856 11.133C4.90834 11.133 4.88906 11.1364 4.85586 11.1392C4.82392 11.142 4.76129 11.1458 4.67711 11.1411L4.90356 7.14747ZM7.10802 8.9087C7.04411 8.78498 6.89477 8.48825 6.71301 8.22769C6.61995 8.09428 6.46017 7.88353 6.22776 7.68634C6.00443 7.49687 5.55352 7.18427 4.90342 7.14746L4.67725 11.1411C4.12412 11.1097 3.76903 10.846 3.63997 10.7365C3.50181 10.6193 3.43474 10.5196 3.43238 10.5162C3.43202 10.5157 3.45612 10.5547 3.55423 10.7446L7.10802 8.9087ZM7.19752 9.07795C7.19818 9.07904 7.19125 9.06743 7.17346 9.03413C7.15573 9.00097 7.13614 8.96312 7.10798 8.90862L3.55428 10.7447C3.59856 10.8304 3.6817 10.9933 3.77024 11.1404L7.19752 9.07795ZM7.27311 9.2017C7.24197 9.15103 7.21826 9.1124 7.19752 9.07794L3.77024 11.1404C3.80228 11.1937 3.83612 11.2487 3.86502 11.2957L7.27311 9.2017ZM7.26946 9.19579L7.26806 9.19352L3.87007 11.3039L3.87147 11.3062L7.26946 9.19579ZM8 11.1764C8.00001 10.5332 7.71774 9.99234 7.63909 9.83774C7.51223 9.58839 7.36014 9.34325 7.27426 9.20355L3.86668 11.2984C3.91569 11.3781 3.95634 11.4444 3.99424 11.5087C4.03207 11.573 4.05756 11.6193 4.07394 11.6515C4.08169 11.6667 4.08482 11.6738 4.08473 11.6736C4.08457 11.6732 4.08314 11.67 4.08079 11.664C4.07845 11.6582 4.07474 11.6485 4.07019 11.6354C4.06189 11.6115 4.0463 11.5632 4.03201 11.4952C4.01818 11.4293 4 11.3189 4 11.1764L8 11.1764ZM5.29034 13.9805C6.00701 13.9805 6.51787 13.6197 6.65533 13.5219C6.88376 13.3595 7.07619 13.1732 7.22579 13.0046C7.37694 12.8343 7.53524 12.6247 7.66785 12.3868C7.76715 12.2086 8.00001 11.7602 8 11.1764L4 11.1765C3.99999 10.9194 4.05557 10.7294 4.08637 10.6394C4.12047 10.5396 4.1558 10.4718 4.17389 10.4394C4.20872 10.3769 4.23194 10.3519 4.2339 10.3497C4.2343 10.3492 4.26343 10.3146 4.33762 10.2618C4.37514 10.2352 4.4575 10.18 4.58127 10.1256C4.6897 10.078 4.94229 9.98052 5.29032 9.98051L5.29034 13.9805ZM5.26761 13.983C5.27495 13.9824 5.28049 13.982 5.28574 13.9816C5.29082 13.9812 5.29465 13.9809 5.29775 13.9807C5.30389 13.9802 5.30596 13.9801 5.30577 13.9801C5.30533 13.9802 5.30308 13.9803 5.29969 13.9804C5.29628 13.9805 5.29303 13.9805 5.29031 13.9805L5.29035 9.98051C5.13643 9.98051 5.01569 9.99048 4.95718 9.99504L5.26761 13.983ZM4.26047 13.9754C4.7881 14.0132 5.041 14.0006 5.26738 13.983L4.95742 9.99502C4.90576 9.99903 4.89368 9.99986 4.86101 9.99999C4.81759 10.0002 4.72528 9.99844 4.54599 9.98561L4.26047 13.9754ZM1.53973 12.5245C1.76205 12.7932 2.09237 13.1041 2.50175 13.3677C2.90995 13.6306 3.51465 13.922 4.26045 13.9754L4.546 9.98561C4.61713 9.9907 4.66171 10.0058 4.67594 10.0112C4.68954 10.0164 4.68579 10.0165 4.6676 10.0048C4.64987 9.99342 4.63081 9.97867 4.61493 9.9645C4.60762 9.95797 4.6036 9.95389 4.6032 9.95347C4.60229 9.95253 4.60879 9.95909 4.62156 9.97454L1.53973 12.5245ZM0 7.02437C5.77698e-06 8.46352 0.267596 9.67776 0.572663 10.5821C0.853208 11.4138 1.21886 12.1367 1.53973 12.5245L4.62156 9.97453C4.72099 10.0947 4.71025 10.114 4.61921 9.93177C4.54981 9.79289 4.45626 9.58056 4.36283 9.3036C4.17596 8.74964 4 7.96826 4 7.02435L0 7.02437ZM2.66054e-05 6.9979L1.09623e-06 7.02227L4 7.02646L4.00002 7.00209L2.66054e-05 6.9979ZM6.99411e-06 6.97721L2.6126e-05 7.00157L4.00002 6.99843L4.00001 6.97407L6.99411e-06 6.97721ZM1.5397 1.47555C1.21888 1.86331 0.853223 2.58617 0.572665 3.41787C0.267594 4.32224 6.00296e-07 5.53649 6.3773e-06 6.97565L4.00001 6.97563C4 6.03174 4.17596 5.25037 4.36283 4.69641C4.45625 4.41945 4.54981 4.20712 4.61921 4.06824C4.71025 3.88607 4.721 3.90529 4.6216 4.02542L1.5397 1.47555ZM4.26047 0.0245975C3.51468 0.0779697 2.90998 0.369363 2.50177 0.632261C2.09239 0.895913 1.76205 1.20681 1.53971 1.47554L4.62159 4.02544C4.6088 4.04089 4.6023 4.04746 4.60321 4.04652C4.60361 4.04611 4.60762 4.04204 4.61493 4.03551C4.6308 4.02134 4.64987 4.0066 4.6676 3.99518C4.68578 3.98346 4.68953 3.98362 4.67594 3.98879C4.66171 3.99419 4.61713 4.0093 4.546 4.01439L4.26047 0.0245975ZM5.26752 0.0170228C5.04091 -0.000606424 4.78812 -0.0131543 4.26051 0.0245951L4.54597 4.0144C4.72538 4.00156 4.8177 3.99984 4.86109 4.00001C4.8937 4.00014 4.90571 4.00096 4.95726 4.00497L5.26752 0.0170228ZM5.29035 0.0194998C5.2931 0.0194998 5.29637 0.0195437 5.29981 0.019644C5.30322 0.0197434 5.30549 0.0198604 5.30594 0.0198848C5.30614 0.0198957 5.30407 0.0197857 5.29793 0.0193443C5.29483 0.0191214 5.291 0.0188368 5.28592 0.0184483C5.28066 0.0180465 5.27512 0.0176151 5.26778 0.0170431L4.957 4.00495C5.01547 4.00951 5.1363 4.0195 5.29032 4.0195L5.29035 0.0194998ZM8 2.8237C8.00004 2.23982 7.76715 1.7914 7.66786 1.61325C7.53525 1.37531 7.37695 1.16573 7.22579 0.995396C7.0762 0.826813 6.88376 0.640472 6.65533 0.478077C6.51787 0.380353 6.007 0.0194962 5.29033 0.0194998L5.29035 4.0195C4.94232 4.0195 4.68972 3.922 4.58129 3.87437C4.45752 3.82001 4.37516 3.76486 4.33764 3.73819C4.26345 3.68544 4.23432 3.65078 4.23391 3.65032C4.23195 3.64811 4.20873 3.62311 4.17389 3.56061C4.15581 3.52816 4.12047 3.46035 4.08637 3.36063C4.05556 3.27055 3.99998 3.08059 4 2.82346L8 2.8237ZM7.27427 4.79643C7.36015 4.65673 7.51224 4.4116 7.63909 4.16224C7.71774 4.00765 7.99999 3.46682 8 2.82361L4 2.82355C4 2.68109 4.01818 2.57068 4.03202 2.5048C4.04631 2.43673 4.06189 2.38847 4.07019 2.36454C4.07474 2.35144 4.07844 2.34182 4.08078 2.33595C4.08314 2.33003 4.08457 2.32679 4.08473 2.32643C4.08482 2.32623 4.08168 2.33327 4.07394 2.34851C4.05755 2.38071 4.03206 2.42701 3.99423 2.49127C3.95633 2.55566 3.91568 2.62189 3.86667 2.70161L7.27427 4.79643ZM7.27137 4.80115L7.27437 4.79628L3.86658 2.70176L3.86359 2.70663L7.27137 4.80115ZM7.19755 4.92201C7.21776 4.88842 7.24089 4.85076 7.27148 4.80098L3.86348 2.70681C3.83517 2.75288 3.80182 2.80712 3.7702 2.85966L7.19755 4.92201ZM7.10805 5.09129C7.1362 5.0368 7.15579 4.99894 7.17351 4.96579C7.1913 4.9325 7.19823 4.92088 7.19758 4.92196L3.77017 2.85971C3.68162 3.00688 3.59849 3.16974 3.55417 3.25556L7.10805 5.09129ZM4.90355 6.85254C5.55367 6.81568 6.00456 6.50302 6.22777 6.31363C6.46013 6.11648 6.61987 5.90578 6.71292 5.77241C6.89466 5.51192 7.04399 5.21525 7.10791 5.09157L3.55431 3.25528C3.45619 3.44516 3.43208 3.48416 3.43241 3.48369C3.43475 3.48034 3.50179 3.38074 3.63989 3.26356C3.76885 3.15414 4.12392 2.89032 4.67711 2.85896L4.90355 6.85254ZM3.88464 6.73674C3.9422 6.75015 4.42181 6.8798 4.90332 6.85256L4.67733 2.85895C4.76136 2.85419 4.82388 2.85802 4.85586 2.86076C4.88906 2.86361 4.90836 2.86698 4.90862 2.86702C4.90937 2.86715 4.90143 2.86579 4.8799 2.8611C4.85732 2.85619 4.83242 2.85043 4.79197 2.84101L3.88464 6.73674ZM4.34044 6.70675C4.15304 6.74071 4.00746 6.73645 3.94271 6.73291C3.87071 6.72897 3.82153 6.72101 3.80865 6.71887C3.79341 6.71634 3.79016 6.71529 3.80721 6.719C3.82462 6.7228 3.84568 6.72767 3.88457 6.73673L4.79204 2.84102C4.73737 2.82829 4.60103 2.79568 4.46408 2.77293C4.37163 2.75758 4.02818 2.6982 3.62731 2.77083L4.34044 6.70675ZM5.44638 5.69594C5.41661 5.82188 5.29998 6.14609 4.95061 6.4196C4.63449 6.66707 4.31835 6.71076 4.3405 6.70674L3.62725 2.77084C3.48811 2.79606 2.97841 2.8836 2.48488 3.26996C1.9581 3.68236 1.68018 4.2405 1.55365 4.77581L5.44638 5.69594ZM5.35485 6.93176C5.35485 6.82664 5.36394 6.55611 5.38581 6.25713C5.39641 6.11211 5.4089 5.97638 5.42238 5.86349C5.43738 5.73795 5.44801 5.68904 5.44635 5.69606L1.55368 4.77569C1.4645 5.15286 1.42044 5.63758 1.39646 5.96534C1.36994 6.32791 1.35485 6.70066 1.35485 6.9318L5.35485 6.93176Z" fill="white" mask="url(#path-1-outside-1_3507_3)"/>
</g>
</svg>
