<svg width="16" height="10" viewBox="0 0 16 10" fill="none" xmlns="http://www.w3.org/2000/svg">
<path opacity="0.35" fill-rule="evenodd" clip-rule="evenodd" d="M8.98999 0.780513V4.03747C8.9864 4.09126 8.99569 4.14516 9.01709 4.19464C9.03849 4.24411 9.07139 4.28774 9.11304 4.32196C9.15469 4.35618 9.2039 4.38002 9.25659 4.39141C9.30928 4.40281 9.36389 4.40146 9.41595 4.38751C9.71595 4.36751 10.3939 1.58748 10.6949 0.987483C10.8549 0.645653 11.1115 0.358187 11.433 0.160518C11.5345 0.0691676 11.6637 0.0145493 11.8 0.00548874H14.678C14.7557 0.0185668 14.8287 0.0512161 14.8903 0.100337C14.9519 0.149459 14.9999 0.213423 15.0299 0.28625C15.0599 0.359078 15.0709 0.438355 15.0618 0.516597C15.0527 0.594839 15.0239 0.66951 14.978 0.733516C14.753 1.23352 12.823 4.34348 12.723 4.46948C12.6026 4.63207 12.5215 4.8203 12.486 5.01947C12.5255 5.25448 12.6341 5.47245 12.798 5.6455C12.998 5.8725 14.614 7.65147 14.765 7.80047C14.9071 7.96441 15.0022 8.16384 15.04 8.3775C15.0039 8.55946 14.9029 8.72207 14.7556 8.8349C14.6084 8.94772 14.4251 9.003 14.24 8.99047C13.614 8.99047 12.0739 8.99047 11.8979 8.99047C11.5462 8.86737 11.2226 8.67529 10.946 8.42547C10.721 8.22547 9.88696 7.27349 9.76196 7.14849C9.71965 7.09761 9.66559 7.05779 9.60443 7.03253C9.54327 7.00726 9.47684 6.99729 9.41095 7.00347C9.26095 7.00347 8.97595 7.01852 8.98895 7.58752C9.02446 7.98272 8.94164 8.3795 8.75098 8.72747C8.65334 8.82109 8.53762 8.89381 8.41089 8.9411C8.28415 8.98839 8.14908 9.00927 8.01398 9.0025C6.99109 9.06451 5.97386 8.81073 5.09998 8.27551C3.52598 7.29751 1.73396 4.68648 0.899963 3.02148C0.402492 2.19435 0.0951165 1.26702 0 0.306514C0.05 0.130514 0.0499521 0.0064653 0.225952 0.0064653C0.401952 0.0064653 2.61499 0.0064653 2.82599 0.0064653C2.97212 0.0792678 3.09405 0.192872 3.177 0.333492C3.252 0.433492 3.82396 2.14547 3.99896 2.44647C4.17396 2.74747 5.03694 4.39648 5.50494 4.39648C5.66034 4.36597 5.79738 4.27529 5.88617 4.14416C5.97496 4.01303 6.0083 3.85208 5.97894 3.69647C5.97894 3.29647 5.97894 1.71748 5.97894 1.51648C5.78871 1.07307 5.44004 0.71652 5.00098 0.516475C5.11032 0.371238 5.24979 0.251398 5.40979 0.165096C5.56979 0.0787935 5.74655 0.0280694 5.92798 0.0164751C6.52798 -0.00852493 8.03297 -0.00847708 8.35797 0.0405229C8.53143 0.0743109 8.68833 0.165846 8.8031 0.300228C8.91787 0.434609 8.98376 0.603902 8.98999 0.780513Z" fill="white"/>
</svg>
