<svg width="16" height="13" viewBox="0 0 16 13" fill="none" xmlns="http://www.w3.org/2000/svg">
<path opacity="0.35" fill-rule="evenodd" clip-rule="evenodd" d="M11.0031 13H4.00309C2.89855 12.954 1.8573 12.4719 1.10752 11.6595C0.357744 10.8472 -0.0394184 9.7707 0.00309263 8.66602V4.33301C-0.0388808 3.22856 0.358498 2.15244 1.1082 1.34033C1.85789 0.528223 2.89882 0.0462907 4.00309 0H11.0031C12.1075 0.0462881 13.1486 0.528371 13.8984 1.3407C14.6481 2.15303 15.0453 3.22937 15.0031 4.33398V8.66699C15.0453 9.77151 14.648 10.8477 13.8983 11.6599C13.1485 12.4721 12.1075 12.954 11.0031 13V13ZM13.0031 4.255C13.0337 3.69254 12.8406 3.14081 12.4659 2.72021C12.0912 2.29962 11.5653 2.0443 11.0031 2.01001H4.00309C3.44084 2.0443 2.91496 2.29962 2.54026 2.72021C2.16556 3.14081 1.97247 3.69254 2.00309 4.255V8.74402C1.97247 9.30648 2.16556 9.85821 2.54026 10.2788C2.91496 10.6994 3.44084 10.9547 4.00309 10.989H11.0031C11.5653 10.9547 12.0912 10.6994 12.4659 10.2788C12.8406 9.85821 13.0337 9.30648 13.0031 8.74402V4.255ZM6.00309 3.987L10.0031 6.49902L6.00309 9.01099V3.987V3.987Z" fill="white"/>
</svg>
